<?xml version="1.0" standalone="no"?>
<!DOCTYPE svg PUBLIC "-//W3C//DTD SVG 20010904//EN"
 "http://www.w3.org/TR/2001/REC-SVG-20010904/DTD/svg10.dtd">
<svg version="1.0" xmlns="http://www.w3.org/2000/svg"
 width="512.000000pt" height="512.000000pt" viewBox="0 0 512.000000 512.000000"
 preserveAspectRatio="xMidYMid meet">
<metadata>
Created by potrace 1.11, written by Peter Selinger 2001-2013
</metadata>
<g transform="translate(0.000000,512.000000) scale(0.100000,-0.100000)"
fill="#000000" stroke="none">
<path d="M2385 4739 c-366 -28 -764 -119 -1150 -264 -162 -61 -406 -165 -513
-219 l-50 -25 -7 -208 c-12 -315 2 -791 30 -1058 37 -356 109 -682 207 -948
22 -59 38 -111 34 -114 -7 -7 -178 21 -445 73 -96 18 -177 32 -179 30 -3 -4
91 -177 148 -271 69 -113 83 -87 -116 -234 -104 -78 -171 -133 -163 -136 18
-7 363 -75 365 -72 0 1 23 126 50 277 l49 275 135 22 c168 27 167 27 181 2 13
-26 -1 -39 -43 -39 -14 0 -35 -3 -45 -7 -16 -7 189 -40 258 -42 l26 -1 -58
139 c-93 225 -158 452 -204 712 -64 370 -81 664 -76 1300 l1 176 89 41 c426
198 904 341 1331 398 168 22 481 22 655 0 413 -54 851 -183 1296 -381 57 -26
110 -54 117 -63 15 -20 17 -606 2 -852 -35 -563 -127 -1005 -285 -1360 -25
-57 -43 -105 -41 -107 2 -3 68 3 145 13 83 10 136 21 129 26 -7 4 -25 8 -40 8
-47 0 -59 9 -46 33 6 12 12 23 13 25 5 6 290 -40 298 -48 5 -4 30 -127 56
-274 27 -147 50 -269 52 -271 7 -6 369 67 369 74 0 4 -77 65 -170 135 -94 70
-169 130 -167 134 3 4 40 70 84 147 44 77 90 160 103 184 l22 44 -24 -6 c-110
-27 -606 -112 -613 -105 -2 2 11 44 30 92 182 463 269 1146 249 1948 l-7 286
-136 65 c-532 256 -1074 406 -1600 447 -149 11 -186 11 -346 -1z"/>
<path d="M2340 4473 c-213 -21 -510 -80 -730 -147 -220 -66 -353 -116 -657
-246 l-53 -23 0 -331 c0 -182 5 -403 10 -491 36 -571 132 -1007 297 -1356 l55
-116 111 -11 c774 -78 1517 -80 2327 -6 194 18 175 5 249 174 170 395 254 817
281 1421 11 253 13 603 4 672 l-6 45 -82 38 c-406 186 -882 323 -1281 369
-116 13 -424 18 -525 8z m-147 -973 c416 -276 757 -505 757 -509 -1 -7 -54
-43 -881 -592 -355 -236 -649 -429 -653 -429 -3 0 -6 459 -6 1021 0 826 2
1020 13 1016 7 -2 353 -231 770 -507z m842 -1 c415 -276 755 -505 755 -509 0
-11 -1523 -1019 -1532 -1014 -4 3 -8 69 -8 147 l0 142 540 359 c297 197 540
362 540 366 0 4 -243 168 -540 366 l-539 359 -1 149 c0 128 2 147 15 142 8 -3
355 -231 770 -507z m765 -1414 l0 -115 -542 0 -543 0 170 114 170 115 373 0
372 1 0 -115z"/>
<path d="M1670 2995 c0 -300 3 -545 7 -545 10 0 812 534 812 540 0 3 -184 128
-409 278 l-410 272 0 -545z"/>
<path d="M680 1791 c0 -3 -25 -145 -55 -316 -30 -170 -55 -314 -55 -320 0 -11
22 -15 365 -60 357 -47 690 -76 1110 -96 280 -13 1031 -7 1285 10 381 27 804
72 1120 119 89 13 115 21 113 32 -1 8 -25 153 -54 323 -50 284 -55 307 -74
307 -11 0 -99 -11 -195 -25 -510 -72 -964 -105 -1520 -112 -691 -9 -1294 32
-1952 131 -49 7 -88 10 -88 7z m3600 -208 c0 -24 -5 -33 -16 -33 -14 0 -15 -7
-10 -37 3 -21 9 -72 13 -114 l6 -76 -36 -40 c-75 -83 -219 -85 -276 -4 -19 27
-26 54 -47 189 -3 22 -10 32 -23 32 -22 0 -38 69 -19 81 13 8 177 24 182 18 2
-2 6 -21 9 -41 5 -33 3 -38 -14 -38 -22 0 -22 0 -8 -93 13 -84 21 -97 60 -97
39 0 52 28 44 93 -11 94 -16 107 -35 107 -13 0 -20 10 -25 36 -3 20 -4 38 -2
40 2 3 44 10 93 17 98 15 104 13 104 -40z m-3239 28 c64 -10 130 -26 147 -35
88 -45 79 -186 -14 -216 -22 -8 -58 -10 -89 -6 -48 5 -53 4 -58 -15 -4 -15 0
-23 14 -26 21 -6 26 -42 9 -72 -8 -17 -15 -17 -101 -4 -51 7 -94 15 -96 17 -2
2 0 21 5 42 6 28 13 40 28 42 18 3 22 15 32 91 15 111 15 111 -3 111 -16 0
-21 43 -9 74 7 20 -4 20 135 -3z m2803 -62 c3 -17 6 -48 6 -69 0 -34 -3 -38
-31 -44 -63 -12 -79 -8 -79 20 0 24 -3 26 -31 20 -17 -3 -40 -6 -50 -6 -12 0
-19 -7 -19 -20 0 -17 7 -20 39 -20 37 0 39 -1 45 -41 8 -51 3 -59 -40 -59 -33
0 -35 -2 -32 -27 3 -26 7 -28 55 -31 l53 -3 -7 31 c-7 40 6 50 68 50 l46 0 7
-46 c11 -84 8 -103 -16 -109 -20 -4 -327 -35 -350 -35 -4 0 -8 20 -8 45 0 33
4 45 15 45 17 0 19 44 9 149 -6 49 -10 61 -24 61 -20 0 -34 58 -19 75 7 7 209
33 340 44 11 1 19 -10 23 -30z m-2359 4 c24 -11 39 -14 43 -7 4 6 28 8 55 6
52 -4 55 -10 40 -96 l-6 -38 -50 7 c-35 4 -58 14 -73 31 -27 29 -88 35 -82 8
2 -11 33 -26 87 -44 104 -33 131 -60 131 -127 0 -39 -5 -50 -39 -84 -35 -36
-43 -39 -93 -39 -33 0 -68 7 -90 19 -23 11 -40 15 -46 9 -5 -5 -30 -7 -57 -3
l-47 8 7 61 c4 33 9 64 12 68 9 16 98 -5 118 -27 27 -31 62 -47 85 -40 42 13
20 34 -64 60 -68 21 -91 33 -116 62 -28 31 -31 42 -27 76 6 40 37 83 72 97 34
15 103 11 140 -7z m444 -33 c8 -4 43 -5 77 -2 l64 5 0 -77 0 -76 -53 0 c-44 0
-58 4 -77 25 -53 56 -150 17 -150 -60 0 -51 36 -85 89 -85 22 0 46 7 55 15 15
15 126 22 139 9 9 -9 -17 -55 -45 -81 -36 -34 -91 -53 -152 -53 -70 0 -102 12
-149 58 -108 105 -61 289 83 330 35 10 92 6 119 -8z m1443 -52 c3 -35 4 -65 2
-67 -2 -2 -29 -6 -59 -9 -54 -4 -55 -4 -55 22 0 22 -4 26 -27 26 -16 0 -34 -4
-42 -9 -21 -13 -5 -41 23 -41 28 0 41 -27 34 -71 -2 -18 -10 -25 -31 -27 -24
-3 -28 -7 -25 -30 2 -21 9 -28 31 -30 25 -3 27 -7 27 -46 l0 -43 -97 -6 c-54
-4 -100 -3 -104 1 -4 4 -9 23 -11 42 -2 29 1 36 17 38 19 3 20 9 17 107 -3 96
-5 105 -22 105 -21 0 -35 34 -28 67 3 15 16 19 93 24 50 3 127 6 171 7 l82 2
4 -62z m-1007 41 c66 -17 131 -78 149 -140 61 -206 -216 -341 -361 -176 -93
106 -44 268 94 311 60 18 64 18 118 5z m381 -61 c26 -35 58 -76 71 -91 l23
-29 0 46 c0 39 -3 46 -20 46 -17 0 -20 7 -20 45 l0 45 94 0 94 0 4 -41 c3 -35
0 -43 -15 -47 -18 -5 -19 -14 -16 -146 l4 -141 -48 -3 c-57 -4 -60 -2 -144
101 l-63 79 0 -51 c0 -45 2 -51 21 -51 18 0 20 -5 17 -42 l-3 -43 -95 0 -95 0
-3 43 c-3 37 -1 42 17 42 20 0 21 6 21 105 0 98 -1 105 -20 105 -17 0 -20 7
-20 38 0 21 3 42 7 45 3 4 37 7 74 7 l68 0 47 -62z m678 -207 c26 -29 17 -73
-18 -90 -25 -12 -31 -11 -55 6 -14 11 -27 30 -29 42 -8 51 66 82 102 42z"/>
<path d="M1050 1508 c0 -7 -3 -23 -6 -36 -6 -22 -4 -23 32 -20 44 3 59 32 28
55 -23 17 -54 17 -54 1z"/>
<path d="M2257 1388 c-38 -30 -43 -92 -9 -130 33 -39 129 -27 146 17 13 36 6
82 -17 103 -26 25 -93 30 -120 10z"/>
<path d="M1640 975 c0 -7 257 -196 355 -262 110 -73 335 -210 472 -286 l102
-57 168 96 c222 127 451 275 623 403 77 58 139 105 137 106 -1 1 -56 -2 -122
-7 l-119 -9 -86 -59 c-188 -131 -577 -370 -602 -370 -26 0 -393 225 -575 351
l-111 78 -94 6 c-51 3 -105 8 -120 10 -16 3 -28 3 -28 0z"/>
<path d="M2040 950 c0 -11 407 -267 501 -316 31 -15 31 -15 152 57 121 72 407
256 407 261 0 2 -238 3 -530 3 -291 0 -530 -2 -530 -5z"/>
</g>
</svg>
